<svg xmlns="http://www.w3.org/2000/svg" width="400" height="140"><title>swimlane-build-cloud-apps</title><g><title>background</title><rect id="canvas_background" width="402" height="142" x="-1" y="-1" fill="none"/></g><g><title>Layer 1</title><g id="svg_85" stroke="null"><rect id="svg_1" width="3.154" height="1.733" x="131.929" y="88.248" fill="#9d6952" stroke="null"/><path id="svg_2" fill="#d8b094" stroke="null" d="m103.293742,114.650456l-67.293742,0l0,-3.224923l67.293742,0l0,3.224923zm-66.208359,-0.921407l65.122976,0l0,-1.38211l-65.122976,0l0,1.38211z"/><path id="svg_3" fill="#c8c8c8" stroke="null" d="m234.491576,133.999995l-148.993229,0a1.62319,1.377964 0 0 1 -1.553183,-1.36875a1.587373,1.347557 0 0 1 1.553183,-1.368289l148.993229,0a1.555896,1.320836 0 0 1 1.553726,1.368289a1.589001,1.348939 0 0 1 -1.553726,1.36875z"/><rect id="svg_4" width="18.994" height="16.125" x="41.427" y="95.301" fill="#939393" stroke="null"/><rect id="svg_5" width="18.994" height="16.125" x="63.135" y="95.301" fill="#f08400" stroke="null"/><rect id="svg_6" width="18.994" height="16.125" x="39.799" y="95.301" fill="#d2d2d2" stroke="null"/><rect id="svg_7" width="18.994" height="16.125" x="61.506" y="95.301" fill="#ffa940" stroke="null"/><polyline id="svg_8" fill="#939393" stroke="null" points="84.842 111.426 103.836 111.426 103.836 95.301 84.842 95.301"/><polyline id="svg_9" fill="#d2d2d2" stroke="null" points="83.214 111.426 102.208 111.426 102.208 95.301 83.214 95.301"/><rect id="svg_10" width="18.994" height="16.125" x="41.427" y="77.794" fill="#409ae1" stroke="null"/><rect id="svg_11" width="18.994" height="16.125" x="63.135" y="77.794" fill="#939393" stroke="null"/><rect id="svg_12" width="18.994" height="16.125" x="39.799" y="77.794" fill="#69afe5" stroke="null"/><rect id="svg_13" width="18.994" height="16.125" x="61.506" y="77.794" fill="#d2d2d2" stroke="null"/><polygon id="svg_14" fill="#737373" fill-rule="evenodd" stroke="null" points="168.417 75.106 176.557 76.373 176.557 70.884 168.417 70.884 168.417 75.106"/><rect id="svg_15" width="6.512" height="23.957" x="177.642" y="57.984" fill="#737373" stroke="null"/><path id="svg_16" fill="#b5d5ea" stroke="null" d="m348.071473,51.534102a23.081754,19.594633 0 0 0 -14.368299,-4.699174a29.835006,25.327625 0 0 0 0.676736,-4.603348a29.451866,25.002369 0 0 0 -29.497452,-24.920364a29.786707,25.286623 0 0 0 -17.637473,4.865948c-6.091712,-9.162467 -17.973941,-15.462585 -31.863587,-15.462585a36.44933,30.942677 0 0 0 -36.61865,30.36772l-0.345152,0a29.49908,25.04245 0 0 0 -26.746006,14.451802l156.399883,0z"/><path id="svg_17" fill="#d9ebf9" stroke="null" d="m340.868329,51.534102a24.696803,20.965686 0 0 0 -10.957483,-2.411321a29.848031,25.338682 0 0 0 0.676736,-4.604269a29.451866,25.002369 0 0 0 -29.498537,-24.919442a29.787792,25.287544 0 0 0 -17.637473,4.865027c-6.090084,-9.159243 -17.972313,-15.45936 -31.860873,-15.45936a65.448591,55.56082 0 0 0 -12.620833,0.973927a36.28001,30.798938 0 0 0 -20.207117,27.103176l-0.345152,0a29.499623,25.042911 0 0 0 -26.746549,14.452263l149.197281,0z"/><rect id="svg_18" width="3.256" height="1.843" x="272.613" y="79.176" fill="#d8b094" stroke="null"/><rect id="svg_19" width="3.256" height="1.843" x="291.608" y="79.176" fill="#d8b094" stroke="null"/><rect id="svg_20" width="3.256" height="1.843" x="300.833" y="79.176" fill="#d8b094" stroke="null"/><rect id="svg_21" width="3.256" height="1.843" x="319.828" y="79.176" fill="#d8b094" stroke="null"/><rect id="svg_22" width="24.964" height="21.192" x="300.291" y="81.019" fill="#939393" stroke="null"/><rect id="svg_23" width="24.964" height="21.192" x="272.071" y="81.019" fill="#939393" stroke="null"/><rect id="svg_24" width="24.964" height="21.192" x="243.308" y="81.019" fill="#f08400" stroke="null"/><rect id="svg_25" width="24.964" height="21.192" x="298.663" y="81.019" fill="#d2d2d2" stroke="null"/><rect id="svg_26" width="24.964" height="21.192" x="269.9" y="81.019" fill="#d2d2d2" stroke="null"/><rect id="svg_27" width="24.964" height="21.192" x="272.071" y="57.984" fill="#939393" stroke="null"/><rect id="svg_28" width="24.964" height="21.192" x="269.9" y="57.984" fill="#d2d2d2" stroke="null"/><rect id="svg_29" width="24.964" height="21.192" x="300.291" y="57.984" fill="#409ae1" stroke="null"/><rect id="svg_30" width="24.964" height="21.192" x="298.663" y="57.984" fill="#69afe5" stroke="null"/><rect id="svg_31" width="24.964" height="21.192" x="241.137" y="81.019" fill="#ffa940" stroke="null"/><rect id="svg_32" width="34.19" height="29.024" x="191.21" y="37.252" fill="#c78e00" stroke="null"/><path id="svg_33" fill="#b5d5ea" stroke="null" d="m189.232192,86.08685c2.034008,11.848829 14.321628,21.174846 29.185405,21.174846l114.608841,0a23.390002,19.856313 0 0 0 23.384575,-19.773386c0,-0.47176 -0.025506,-0.937992 -0.062952,-1.401459l-167.115868,0z"/><path id="svg_34" fill="#d9ebf9" stroke="null" d="m189.238162,86.08685a29.125708,24.725486 0 0 0 11.713995,16.337461a45.359238,38.506504 0 0 0 13.672569,1.632272l112.529247,0c12.891093,0 24.632223,-5.278278 24.924191,-16.150415a20.459468,17.368515 0 0 0 -0.068922,-1.819317l-162.77108,0z"/><rect id="svg_35" width="23.711" height="10.979" x="153.209" y="112.604" stroke="null"/><path id="svg_36" fill="#464646" fill-rule="evenodd" stroke="null" d="m127.343115,105.417961c0,1.308397 0.538893,2.33853 1.077785,2.33853l14.549558,0c1.077785,0 1.616678,-1.030133 1.616678,-2.33853l0,-0.654199a1.515737,1.286744 0 0 0 -1.616678,-1.308397l-14.550101,0c-0.538893,0 -1.077785,0.654199 -1.077785,1.308397l0.000543,0.654199z"/><rect id="svg_37" width="34.489" height="9.15" x="125.188" y="108.945" fill="#737373" stroke="null"/><path id="svg_38" fill="#737373" fill-rule="evenodd" stroke="null" d="m145.21503,70.517382l-26.537613,0a2.287987,1.942325 0 0 0 -2.304811,1.794439l0,31.143544l2.350939,0l0.134045,-29.853575a0.705499,0.598914 0 0 1 0.705499,-0.59615l23.936493,0s14.327055,8.453445 14.327055,40.277448c0,1.491757 3.43795,2.983515 3.43795,-2.983515c-0.00597,-0.002304 0.567113,-27.351034 -16.049558,-39.782192z"/><polygon id="svg_39" fill="#d83b01" fill-rule="evenodd" stroke="null" points="161.869 110.804 174.538 110.804 174.538 118.349 166.884 124.601 162.397 125.032 141.018 125.032 161.869 110.804"/><polygon id="svg_40" fill="#737373" fill-rule="evenodd" stroke="null" points="92.855 114.993 92.855 125.414 127.343 125.414 112.104 112.604 92.855 114.993"/><path id="svg_41" fill="#ec6401" fill-rule="evenodd" stroke="null" d="m140.657507,127.699877l-29.3862,0s-1.728472,-12.574436 -18.436315,-12.574436l0,-6.287218s0,-8.704989 12.098764,-8.704989l11.418771,0l0,3.141997s21.382044,-1.423113 21.382044,13.753837l13.227562,0l9.776587,-7.114181l13.799559,0l0,2.667933l-14.019891,0l-19.86088,15.117058z"/><circle id="svg_42" cx="97.166" cy="125.414" r="7.32" fill="#505050" stroke="null"/><circle id="svg_43" cx="97.166" cy="125.414" r="3.66" fill="#b2b2b2" stroke="null"/><rect id="svg_44" width="6.512" height="77.398" x="174.386" y="47.848" fill="#939393" stroke="null"/><circle id="svg_45" cx="166.143" cy="123.584" r="9.15" fill="#505050" stroke="null"/><circle id="svg_46" cx="166.143" cy="123.584" r="5.49" fill="#b2b2b2" stroke="null"/><rect id="svg_47" width="2.776" height=".852" x="132.865" y="102.087" fill="#0078d7" stroke="null"/><path id="svg_48" fill="#0063b0" stroke="null" d="m141.236559,113.989346l-2.533284,-11.05043l-5.933789,-0.727451l0.529124,-3.046631l7.316024,0.933385a1.879341,1.595416 0 0 1 1.534731,1.342029l1.336649,12.55094l-2.249456,-0.001843z"/><path id="svg_49" fill="#0063b0" stroke="null" d="m147.074834,114.189752c-4.256872,-10.602165 -4.133138,-10.293494 -4.133138,-10.293494c-1.261215,-0.100894 -10.411536,-0.958724 -10.411536,-0.958724c0.379884,-3.086712 0.379884,-3.370505 0.379884,-3.370505l11.579408,1.095092a1.862517,1.581134 0 0 1 1.532561,1.139319l3.634405,12.388312l-2.581583,0z"/><path id="svg_50" fill="#006fc8" stroke="null" d="m136.597632,90.714154c-0.315846,-0.477749 -0.670224,-1.342489 -2.342256,-1.342489l-2.489326,0c-1.67366,0 -1.911359,1.463194 -2.055715,1.747908c-0.525868,1.176176 -0.76411,6.254508 -0.76411,8.367754c0,2.073165 -0.019537,3.086712 1.385491,3.330885c1.909731,0.329864 5.63368,0.726529 5.63368,0.726529c1.433791,0 2.546851,0.003225 2.546851,-2.066254s-1.362698,-9.832791 -1.914616,-10.764333z"/><path id="svg_51" fill="#464646" stroke="null" d="m146.359024,113.86726c-0.48191,-0.20317 -2.777495,-1.013547 -2.777495,-1.013547l0,0a0.172033,0.146043 0 0 0 -0.142185,-0.041003a0.348951,0.296232 0 0 0 -0.334841,0.243251l0,0a0.956222,0.811759 0 0 1 -1.050651,0.608589l-1.008321,-0.527505l-0.047214,1.788911a0.385854,0.32756 0 0 0 0.429269,0.365338l4.978652,-0.122086a0.293596,0.24924 0 0 0 0.334841,-0.282872l0.047214,-0.571733s0.0483,-0.244173 -0.429269,-0.447343z"/><path id="svg_52" fill="#464646" stroke="null" d="m152.576097,113.825797c-0.525868,-0.243251 -3.110708,-1.095092 -3.110708,-1.095092l-0.191027,0a0.267004,0.226666 0 0 0 -0.286541,0.20317a0.046671,0.03962 0 0 1 -0.0483,0.040081a1.009406,0.856908 0 0 1 -1.099493,0.650052l-1.051736,-0.568969l-0.047214,1.869995a0.386396,0.328021 0 0 0 0.430897,0.365338l5.451336,-0.122086s0.334841,0.081084 0.334841,-0.282872l0,-0.613196s0.095514,-0.201788 -0.382055,-0.446422z"/><path id="svg_53" fill="#737373" stroke="null" d="m148.885253,95.088532l-7.146161,4.242617a0.590991,0.501706 0 1 0 0.677822,0.822355l2.850758,-1.692624l0.71581,0.868426l-1.072358,0.636692l9.442832,11.333302l4.2102,-1.175254l-10.180892,-12.218313l-1.072358,0.636692l-0.71581,-0.868426l2.967437,-1.761729a0.590991,0.501706 0 0 0 -0.677279,-0.822816l0,-0.000921z"/><path id="svg_54" fill="#805443" stroke="null" d="m143.623316,96.667823c0.036903,-0.118401 0.777134,-0.121165 0.837916,-0.317425c0.119935,-0.224823 1.469608,-0.259376 1.469608,-0.259376c0.149783,-0.009214 0.36903,0.082466 0.366317,0.24924a0.292511,0.248319 0 0 1 -0.247467,0.322492l-1.99222,0.355663a0.369573,0.313739 0 0 1 -0.424927,-0.223902c0.011939,-0.038238 -0.021165,-0.088455 -0.009226,-0.126693z"/><path id="svg_55" fill="#9d6952" stroke="null" d="m145.20906,96.811102a0.325615,0.276422 0 0 1 0.409189,-0.20317l1.967257,0.522438a0.405391,0.344145 0 0 1 0.225217,0.386991a0.368488,0.312818 0 0 1 -0.454233,0.191192l-1.908103,-0.55008a0.325615,0.276422 0 0 1 -0.239327,-0.34737z"/><path id="svg_56" fill="#9d6952" stroke="null" d="m144.419987,97.604433a0.325615,0.276422 0 0 1 0.409189,-0.20317l1.967257,0.522438a0.305535,0.259376 0 0 1 0.180174,0.375473a0.271346,0.230352 0 0 1 -0.39725,0.163089l-1.966714,-0.522438a0.26809,0.227587 0 0 1 -0.192655,-0.335392z"/><path id="svg_57" fill="#9d6952" stroke="null" d="m144.149184,98.003863a0.26809,0.227587 0 0 1 0.395079,-0.16355l1.70188,0.422004a0.359262,0.304986 0 1 1 -0.227388,0.578643l-1.644355,-0.450107a0.405933,0.344606 0 0 1 -0.225217,-0.386991z"/><path id="svg_58" fill="#9d6952" stroke="null" d="m144.565971,97.132212a0.369573,0.313739 0 0 1 0.455318,-0.195338l2.094246,0.592925a0.325615,0.276422 0 0 1 0.238242,0.350135a0.405933,0.344606 0 0 1 -0.454775,0.192574l-2.106186,-0.552844a0.405391,0.344145 0 0 1 -0.226845,-0.387451z"/><path id="svg_59" fill="#9d6952" stroke="null" d="m144.046073,97.855977c0.181802,-0.588779 0.509045,-1.484847 0.509045,-1.484847l0.970875,0.216531l-0.735347,1.895794s-0.914435,-0.07878 -0.744573,-0.627478z"/><path id="svg_60" fill="#9d6952" stroke="null" d="m145.66872,96.619449a1.430535,1.214414 0 0 0 -1.089182,-0.326639l-0.157923,0.509999l1.247105,-0.18336z"/><path id="svg_61" fill="#0063b0" stroke="null" d="m130.390327,92.475884c0.763567,1.776011 3.655027,4.306655 4.329593,4.854431s9.377709,1.065607 9.377709,1.065607l0.840629,-2.142731s-6.538347,-0.967477 -7.031111,-1.09371s-2.958211,-2.300292 -4.931437,-4.61164c-1.165159,-1.365064 -3.450975,-0.084309 -2.585382,1.928043z"/><path id="svg_62" fill="#9d6952" stroke="null" d="m131.357403,82.560627c1.546128,-0.684605 3.219246,-0.529809 4.085924,0a2.55879,2.172216 0 0 1 1.139652,2.092054a2.394355,2.032623 0 0 0 0.698987,1.615226c0.200796,0.215609 0.366859,0.43214 0.037446,0.552844a3.757053,3.189449 0 0 1 -0.609443,0.171382l0.065123,1.808261s-2.148516,0.722843 -3.974672,0.051599a4.025685,3.417497 0 0 1 -0.442836,-0.193495c-0.046671,-0.022114 -0.100398,-0.049295 -0.159551,-0.081544l-0.020622,-0.011057a6.140011,5.212397 0 0 1 -1.886396,-1.848802c-1.141823,-1.708749 -0.622467,-3.409665 1.066389,-4.156465z"/><path id="svg_63" fill="#805443" stroke="null" d="m136.584608,84.650838l-3.465628,0.664795l-0.156295,-1.307937l3.636033,-0.190731a5.664614,4.808821 0 0 1 -0.01411,0.833873z"/><path id="svg_64" fill="#464646" stroke="null" d="m130.308381,82.546345c2.128979,-1.602326 5.613601,-0.39298 5.613601,-0.39298l0.359804,1.148533l-3.340809,0.234037l0.261577,2.227961l-1.190122,0.083387l0.009226,0.786421l-0.573082,1.409752a6.374997,5.411882 0 0 1 -1.780028,-2.741645a4.391459,3.728011 0 0 1 0.639833,-2.755467z"/><path id="svg_65" fill="#9d6952" stroke="null" d="m132.321766,85.173276l0.1856,1.580673a1.005065,0.853223 0 0 1 -1.151591,-0.732979a0.960021,0.814984 0 0 1 0.965991,-0.847694"/><polygon id="svg_66" fill="#737373" stroke="null" points="131.497 84.125 129.639 85.707 129.017 85.117 130.151 84.14 131.497 84.125"/><path id="svg_67" fill="#ec6401" stroke="null" d="m132.732584,80.448302c1.578689,-0.057588 2.541424,0.392059 3.129159,0.973005l0.259949,0.043767a0.271346,0.230352 0 0 1 0.209479,0.207316l0.464544,1.99162a0.189942,0.161246 0 0 1 -0.198625,0.152954l-1.55047,0.051138a0.235528,0.199945 0 0 1 -0.12102,-0.022574c-1.371381,0.111029 -3.097683,0.243712 -3.671308,0.254769a13.736064,11.660862 0 0 1 -1.78437,-0.060352c-0.030391,-0.490649 -0.554631,-3.452971 3.262661,-3.591643z"/><polygon id="svg_68" fill="#ec6401" stroke="null" points="138.905 83.767 136.735 83.6 129.231 83.849 129.258 84.286 138.917 83.966 138.905 83.767"/><path id="svg_69" fill="#ec6401" stroke="null" d="m134.366628,82.958214l-0.325615,0.010596a0.302822,0.257072 0 0 0 -0.297938,0.265826l0.023878,0.385609a0.313133,0.265826 0 0 0 0.329414,0.245094l0.325615,-0.011057a0.302279,0.256612 0 0 0 0.297938,-0.265365l-0.023878,-0.386069a0.31259,0.265365 0 0 0 -0.329414,-0.244633z"/><path id="svg_70" fill="#ec6401" stroke="null" d="m131.489277,83.058647l-0.325615,0.010596a0.303365,0.257533 0 0 0 -0.297938,0.265826l0.023878,0.385609a0.313133,0.265826 0 0 0 0.329414,0.245094l0.325615,-0.010596a0.303365,0.257533 0 0 0 0.297938,-0.265826l-0.023878,-0.386069a0.31259,0.265365 0 0 0 -0.329414,-0.244633z"/><path id="svg_71" fill="#464646" fill-rule="evenodd" stroke="null" d="m129.890508,103.380271l-2.229919,-10.36306a0.884587,0.750946 0 0 0 -1.031114,-0.603521l-2.572358,0.39943a0.88513,0.751407 0 0 0 -0.711469,0.875336l1.811504,8.407835l4.733355,1.28398z"/><rect id="svg_72" width="6.257" height="1.882" x="109.013" y="107.115" fill="#d83b01" stroke="null" rx=".697"/><path id="svg_73" fill="#737373" stroke="null" d="m155.413288,85.231324l-5.243485,0l-1.142366,-1.72902a0.220333,0.187046 0 0 0 -0.192113,-0.095366l-2.499094,0a0.220333,0.187046 0 0 0 -0.192113,0.276422l3.42384,5.181069a0.220333,0.187046 0 0 0 0.192113,0.095366l2.496381,0a0.220875,0.187506 0 0 0 0.192113,-0.278726l-1.560781,-2.363869l4.526047,0l-0.000543,-1.085878z"/><rect id="svg_74" width="34.19" height="29.024" x="188.496" y="37.252" fill="#ffb900" stroke="null"/><rect id="svg_75" width="2.713" height="2.304" x="36" y="111.886" fill="#d8b094" stroke="null"/><rect id="svg_76" width="2.713" height="2.304" x="53.909" y="111.886" fill="#d8b094" stroke="null"/><rect id="svg_77" width="2.713" height="2.304" x="71.818" y="111.886" fill="#d8b094" stroke="null"/><rect id="svg_78" width="2.919" height="2.478" x="89.199" y="111.683" fill="#d8b094" stroke="null"/><rect id="svg_79" width="1.628" height="1.382" x="41.427" y="93.919" fill="#d8b094" stroke="null"/><rect id="svg_80" width="1.628" height="1.382" x="57.165" y="93.919" fill="#d8b094" stroke="null"/><rect id="svg_81" width="1.628" height="1.382" x="63.135" y="93.919" fill="#d8b094" stroke="null"/><rect id="svg_82" width="1.628" height="1.382" x="79.415" y="93.919" fill="#d8b094" stroke="null"/><path id="svg_83" fill="#737373" fill-rule="evenodd" stroke="null" d="m137.731315,117.029067l4.686684,0c0.002713,-0.05252 0.013567,-0.101355 0.013567,-0.154796c0,-15.127193 -15.229008,-17.078733 -24.366847,-17.078733l-0.807525,3.450668c3.830859,-0.07832 20.474121,0.351517 20.474121,13.782861z"/><rect id="svg_84" width="51.013" height="1.843" x="180.899" y="65.816" fill="#737373" stroke="null"/></g></g></svg>