<svg xmlns="http://www.w3.org/2000/svg" width="400" height="140"><title>swimlane-microservices-modules</title><g><title>background</title><rect id="canvas_background" width="402" height="142" x="-1" y="-1" fill="none"/></g><g><title>Layer 1</title><g id="svg_83" stroke="null"><polygon id="svg_12" fill="#f57800" stroke="null" points="286.442 42.273 286.442 55.731 298.282 48.104 298.202 34.673 286.442 42.273"/><polygon id="svg_48" fill="#409ae1" stroke="null" points="286.442 29.237 286.442 42.694 298.282 35.068 298.202 21.637 286.442 29.237"/><polygon id="svg_66" fill="#ec6401" stroke="null" points="146.428 120.12 146.428 133.578 134.589 125.952 134.669 112.521 146.428 120.12"/><polygon id="svg_67" fill="#d83b01" stroke="null" points="146.428 120.136 146.428 133.522 157.753 126.173 157.833 112.655 146.428 120.136"/><path id="svg_68" fill="#ec6401" stroke="null" d="m149.002091,121.795971l0,5.874053a0.347461,0.341809 0 0 0 0.539466,0.2856l4.966381,-3.222627a0.347461,0.341809 0 0 0 0.154427,-0.284081l0.035004,-5.93178a0.346947,0.341303 0 0 0 -0.539466,-0.286107l-5.002414,3.281367a0.348491,0.342822 0 0 0 -0.153398,0.283575z"/><polygon id="svg_69" fill="#f57800" stroke="null" points="146.342 120.159 134.791 112.608 146.025 105.317 157.655 112.738 146.342 120.159"/><path id="svg_70" fill="#f57800" stroke="null" d="m153.223103,122.004094a0.617709,0.607661 0 0 0 0.048387,0.906427l2.965518,1.869569a0.782946,0.77021 0 0 0 0.983187,-0.25623a0.617709,0.607661 0 0 0 -0.048902,-0.906427l-2.965518,-1.869569a0.781917,0.769197 0 0 0 -0.982672,0.25623z"/><path id="svg_71" fill="#f57800" stroke="null" d="m149.845264,123.809859a0.617709,0.607661 0 0 0 0.048387,0.905921l2.965518,1.869569a0.781917,0.769197 0 0 0 0.983187,-0.25623a0.617709,0.607661 0 0 0 -0.048387,-0.906427l-2.965518,-1.869063a0.781402,0.768691 0 0 0 -0.983187,0.25623z"/><polygon id="svg_54" fill="#b2b2b2" stroke="null" points="312.695 94.783 312.695 108.24 324.534 100.614 324.454 87.183 312.695 94.783"/><polygon id="svg_55" fill="#939393" stroke="null" points="313.21 94.798 313.21 108.184 301.885 100.835 301.805 87.318 313.21 94.798"/><polygon id="svg_56" fill="#d2d2d2" stroke="null" points="313.02 94.821 324.571 87.271 313.336 79.98 301.706 87.401 313.02 94.821"/><polygon id="svg_57" fill="#f57800" stroke="null" points="301.37 102.195 301.37 115.653 313.21 108.026 313.129 94.596 301.37 102.195"/><polygon id="svg_58" fill="#ff8c00" stroke="null" points="301.37 102.21 301.37 115.596 290.046 108.247 289.966 94.73 301.37 102.21"/><polygon id="svg_59" fill="#ffb900" stroke="null" points="301.504 102.234 313.055 94.683 301.821 87.392 290.191 94.813 301.504 102.234"/><path id="svg_76" fill="#939393" stroke="null" d="m313.327637,90.397134l4.478391,-2.928924a0.458649,0.451188 0 0 0 0,-0.75198l-4.338892,-2.814988a0.45556,0.44815 0 0 0 -0.498285,0l-4.510821,2.878792a0.458649,0.451188 0 0 0 -0.005148,0.753499l4.368233,2.86512a0.45556,0.44815 0 0 0 0.506521,-0.001519z"/><path id="svg_77" fill="#b2b2b2" stroke="null" d="m311.507454,88.617702a1.075329,1.057836 0 0 1 -0.871485,-0.66792l0,-3.839909a1.075843,1.058342 0 0 1 0.871485,-0.667414a0.671759,0.660831 0 0 1 0.672788,0.667414l0,3.839909a0.672273,0.661337 0 0 1 -0.672788,0.66792z"/><path id="svg_78" fill="#b2b2b2" stroke="null" d="m314.725718,86.495447c-0.373714,0 -0.676391,-0.299273 -1.001203,-0.66792l0,-3.838896c0.324812,-0.368647 0.627489,-0.66792 1.001203,-0.66792a0.517846,0.509422 0 0 1 0.543069,0.66792l0,3.839909a0.517846,0.509422 0 0 1 -0.543069,0.666908z"/><rect id="svg_2" width="1.642" height="65.777" x="308.819" y="327.515" fill="#b2b2b2" stroke="null" transform="matrix(0.2832891168875117,-0.4228021139898046,0.42979371360207685,0.2786807570695143,-50.67831417862041,73.2771610485922)"/><rect id="svg_4" width="72.037" height="1.642" x="365.12" y="360.341" fill="#b2b2b2" stroke="null" transform="matrix(0.4304599959394959,-0.2776837928159458,0.28227566649383634,0.4234575576872329,-13.799715880451387,14.791339923392272)"/><polygon id="svg_5" fill="#b2b2b2" stroke="null" points="302.036 93.966 285.178 82.458 266.831 93.909 248.671 82.308 249.132 81.61 266.837 92.921 285.199 81.46 302.519 93.282 302.036 93.966"/><polygon id="svg_9" fill="#737373" stroke="null" points="275.632 35.136 275.632 48.593 287.472 40.967 287.392 27.536 275.632 35.136"/><polygon id="svg_10" fill="#b2b2b2" stroke="null" points="275.632 35.151 275.632 48.537 264.308 41.188 264.228 27.67 275.632 35.151"/><polygon id="svg_11" fill="#d2d2d2" stroke="null" points="275.479 35.174 287.029 27.623 275.795 20.333 264.165 27.754 275.479 35.174"/><polygon id="svg_13" fill="#ff8c00" stroke="null" points="286.442 42.288 286.442 55.674 275.118 48.325 275.038 34.808 286.442 42.288"/><polygon id="svg_14" fill="#c2c2c2" stroke="null" points="286.595 42.311 298.146 34.761 286.912 27.47 275.282 34.891 286.595 42.311"/><polygon id="svg_15" fill="#b2b2b2" stroke="null" points="221.068 59.284 221.068 72.742 232.908 65.116 232.827 51.685 221.068 59.284"/><polygon id="svg_16" fill="#b2b2b2" stroke="null" points="221.583 59.3 221.583 72.686 210.258 65.336 210.178 51.819 221.583 59.3"/><polygon id="svg_17" fill="#d2d2d2" stroke="null" points="221.334 59.323 232.885 51.772 221.65 44.481 210.02 51.902 221.334 59.323"/><polygon id="svg_18" fill="#724aad" stroke="null" points="209.743 79.698 209.743 93.155 221.583 85.53 221.503 72.098 209.743 79.698"/><polygon id="svg_19" fill="#b2b2b2" stroke="null" points="209.743 79.713 209.743 93.099 198.419 85.75 198.339 72.233 209.743 79.713"/><polygon id="svg_20" fill="#c2c2c2" stroke="null" points="209.801 79.737 221.351 72.186 210.117 64.895 198.487 72.316 209.801 79.737"/><polygon id="svg_21" fill="#724aad" stroke="null" points="244.232 72.156 244.232 85.613 256.072 77.988 255.991 64.556 244.232 72.156"/><polygon id="svg_22" fill="#939393" stroke="null" points="244.232 72.171 244.232 85.557 232.908 78.208 232.828 64.691 244.232 72.171"/><polygon id="svg_23" fill="#9080cf" stroke="null" points="244.266 72.195 255.817 64.643 244.582 57.353 232.952 64.774 244.266 72.195"/><polygon id="svg_24" fill="#409ae1" stroke="null" points="209.743 66.731 209.743 80.189 221.583 72.563 221.503 59.131 209.743 66.731"/><polygon id="svg_25" fill="#69afe5" stroke="null" points="209.743 66.746 209.743 80.133 198.419 72.783 198.339 59.266 209.743 66.746"/><polygon id="svg_26" fill="#b2b2b2" stroke="null" points="209.783 66.77 221.334 59.219 210.099 51.928 198.469 59.349 209.783 66.77"/><polygon id="svg_27" fill="#f57800" stroke="null" points="209.743 53.591 209.743 67.048 221.583 59.422 221.503 45.991 209.743 53.591"/><polygon id="svg_28" fill="#ff8c00" stroke="null" points="209.743 53.606 209.743 66.992 198.419 59.643 198.339 46.126 209.743 53.606"/><path id="svg_29" fill="#f57800" stroke="null" d="m207.169697,55.266249l0,5.874053a0.347976,0.342315 0 0 1 -0.539466,0.286107l-4.966381,-3.223133a0.347461,0.341809 0 0 1 -0.154427,-0.284081l-0.035004,-5.93178a0.346947,0.341303 0 0 1 0.539466,-0.286107l5.002929,3.281367a0.349006,0.343328 0 0 1 0.152883,0.283575z"/><polygon id="svg_30" fill="#ffb900" stroke="null" points="209.801 53.63 221.351 46.078 210.117 38.788 198.487 46.209 209.801 53.63"/><polygon id="svg_31" fill="#409ae1" stroke="null" points="198.419 87.212 198.419 100.669 210.258 93.044 210.178 79.612 198.419 87.212"/><polygon id="svg_32" fill="#69afe5" stroke="null" points="198.419 87.227 198.419 100.613 187.094 93.264 187.014 79.746 198.419 87.227"/><polygon id="svg_33" fill="#7bc0ef" stroke="null" points="198.293 87.25 209.843 79.699 198.609 72.409 186.979 79.83 198.293 87.25"/><polygon id="svg_34" fill="#f57800" stroke="null" points="232.393 79.64 232.393 93.098 244.232 85.472 244.152 72.041 232.393 79.64"/><polygon id="svg_35" fill="#ff8c00" stroke="null" points="232.908 79.655 232.908 93.041 221.583 85.692 221.503 72.175 232.908 79.655"/><polygon id="svg_36" fill="#ffb900" stroke="null" points="232.707 79.679 244.259 72.128 233.024 64.837 221.394 72.258 232.707 79.679"/><path id="svg_37" fill="#f57800" stroke="null" d="m233.042957,74.867861l4.478391,-2.928924a0.458649,0.451188 0 0 0 0,-0.75198l-4.337347,-2.814988a0.45556,0.44815 0 0 0 -0.498285,0l-4.510821,2.878792a0.458649,0.451188 0 0 0 -0.005148,0.753499l4.368233,2.86512a0.45556,0.44815 0 0 0 0.504977,-0.001519z"/><path id="svg_38" fill="#ff8c00" stroke="null" d="m231.222774,73.088428a1.123201,1.10493 0 0 1 -0.888986,-0.66792l0,-3.839909a1.124231,1.105942 0 0 1 0.888986,-0.66792a0.647565,0.637031 0 0 1 0.655286,0.66792l0,3.839909a0.64705,0.636524 0 0 1 -0.655286,0.66792z"/><path id="svg_39" fill="#ff8c00" stroke="null" d="m234.441038,70.967693c-0.373714,0 -0.676391,-0.299273 -1.018705,-0.66792l0,-3.839909c0.342314,-0.368647 0.644991,-0.66792 1.018705,-0.66792a0.502403,0.494231 0 0 1 0.525567,0.66792l0,3.839909a0.502403,0.494231 0 0 1 -0.525567,0.66792z"/><path id="svg_40" fill="#ffb900" stroke="null" d="m202.815877,55.370564a0.617709,0.607661 0 0 1 -0.048387,0.906427l-2.965518,1.869063a0.781402,0.768691 0 0 1 -0.983187,-0.25623a0.617709,0.607661 0 0 1 0.048387,-0.906427l2.965518,-1.869063a0.781402,0.768691 0 0 1 0.983187,0.25623z"/><path id="svg_41" fill="#ffb900" stroke="null" d="m206.191657,57.175823a0.617709,0.607661 0 0 1 -0.051476,0.906427l-2.965518,1.869063a0.780887,0.768184 0 0 1 -0.982672,-0.25623a0.617709,0.607661 0 0 1 0.048387,-0.906427l2.965518,-1.869063a0.782432,0.769703 0 0 1 0.985761,0.25623z"/><polygon id="svg_49" fill="#69afe5" stroke="null" points="286.442 29.252 286.442 42.638 275.118 35.288 275.038 21.771 286.442 29.252"/><polygon id="svg_50" fill="#7bc0ef" stroke="null" points="286.648 29.275 298.199 21.724 286.964 14.433 275.334 21.855 286.648 29.275"/><polygon id="svg_60" fill="#409ae1" stroke="null" points="172.166 26.303 172.166 39.76 184.006 32.135 183.925 18.703 172.166 26.303"/><polygon id="svg_61" fill="#69afe5" stroke="null" points="172.166 26.318 172.166 39.704 160.842 32.355 160.762 18.838 172.166 26.318"/><path id="svg_62" fill="#409ae1" stroke="null" d="m169.592394,27.978743l0,5.874053a0.347976,0.342315 0 0 1 -0.539466,0.2856l-4.96844,-3.224652a0.347976,0.342315 0 0 1 -0.154427,-0.284588l-0.035004,-5.931274a0.346947,0.341303 0 0 1 0.539466,-0.285094l5.002414,3.280861a0.34952,0.343835 0 0 1 0.155457,0.285094z"/><polygon id="svg_63" fill="#7bc0ef" stroke="null" points="172.141 26.342 183.693 18.79 172.458 11.5 160.828 18.921 172.141 26.342"/><path id="svg_64" fill="#7bc0ef" stroke="null" d="m165.262253,28.186867a0.617709,0.607661 0 0 1 -0.048387,0.906427l-2.965518,1.869063a0.781402,0.768691 0 0 1 -0.983187,-0.25623a0.617709,0.607661 0 0 1 0.048902,-0.906427l2.965518,-1.869063a0.780887,0.768184 0 0 1 0.982672,0.25623z"/><path id="svg_65" fill="#7bc0ef" stroke="null" d="m168.638033,29.992125a0.617709,0.607661 0 0 1 -0.048387,0.906427l-2.965518,1.869569a0.781402,0.768691 0 0 1 -0.983187,-0.25623a0.617709,0.607661 0 0 1 0.048387,-0.906427l2.965518,-1.869063a0.781917,0.769197 0 0 1 0.983187,0.255724z"/><path id="svg_73" fill="#d2d2d2" stroke="null" d="m205.82515,106.44697l-0.570866,-0.842623l0.91215,-0.598546l0.571381,0.842623l-0.912665,0.598546zm2.737481,-1.795131l-0.571381,-0.842623l0.912665,-0.598546l0.570866,0.842623l-0.91215,0.598546zm1.824301,-1.196585l-0.570866,-0.842623l0.91215,-0.598039l0.571381,0.842623l-0.912665,0.598039zm1.824816,-1.196585l-0.570866,-0.842623l0.91215,-0.598546l0.570866,0.843129l-0.91215,0.598039zm1.824301,-1.196585l-0.570866,-0.842623l0.91215,-0.598546l0.570866,0.842623l-0.91215,0.598546zm1.824816,-1.196585l-0.571381,-0.842623l0.912665,-0.598546l-0.341799,1.439649l0.000515,0.001519zm1.824301,-1.196585l-0.570866,-0.842623l0.91215,-0.598039l0.571381,0.842623l-0.912665,0.598039zm1.824816,-1.196585l-0.571381,-0.842623l0.912665,-0.598546l0.570866,0.842623l-0.91215,0.598546zm1.824816,-1.196585l-0.571381,-0.842623l0.91215,-0.598546l0.571381,0.842623l-0.91215,0.598546zm1.824301,-1.197091l-0.570866,-0.842623l0.91215,-0.597533l0.570866,0.842623l-0.91215,0.597533zm1.824301,-1.196079l-0.570866,-0.842623l0.001544,-0.000506l0.570866,0.843129l-0.001544,0zm1.829963,-1.20013l-0.576014,-0.839078l0.005148,-0.003545l0.570866,0.842623z"/><path id="svg_74" fill="#d2d2d2" stroke="null" d="m266.703984,90.758186l-0.978039,-0.626397l0.560571,-0.849206l0.706247,0.450682l-0.127145,0.192932l0.334592,0.530184l-0.496226,0.301805zm1.921075,-1.172785l-0.543069,-0.860853l0.931196,-0.569175l0.543584,0.860853l-0.931711,0.569175zm-3.325334,-0.342315l-0.919872,-0.586899l0.560571,-0.849712l0.919872,0.586899l-0.560571,0.849712zm5.188242,-0.796035l-0.543584,-0.860853l0.931711,-0.569175l0.543584,0.860853l-0.931711,0.569175zm-8.455408,0.491192l-0.919872,-0.586899l0.560056,-0.849712l0.919872,0.586899l-0.560056,0.849712zm17.345271,-1.250768l-0.543069,-0.860853l0.931711,-0.569175l0.543069,0.860853l-0.931711,0.569175zm-10.729607,-0.414222l-0.919872,-0.586899l0.560571,-0.849712l0.919872,0.587405l-0.560571,0.849206zm12.592515,-0.723623l-0.543069,-0.860853l0.931196,-0.569175l0.543584,0.860853l-0.931711,0.569175zm-14.432258,-0.450682l-0.919357,-0.586899l0.560056,-0.849712l0.919872,0.586899l-0.560571,0.849712zm16.295166,-0.687669l-0.543584,-0.860853l0.931711,-0.569175l0.543584,0.860853l-0.931711,0.569175zm1.862908,-1.138351l-0.543584,-0.860853l0.863763,-0.527652l0.543069,0.860853l-0.863248,0.527652z"/><path id="svg_75" fill="#d2d2d2" stroke="null" d="m257.294216,56.149889l-0.557482,-0.851738l0.522479,-0.331175l0.557997,0.851738l-0.522994,0.331175zm1.967403,-1.246717l-0.557997,-0.851231l0.921416,-0.584873l0.557997,0.851738l-0.921416,0.584367zm1.843347,-1.168228l-0.557997,-0.851738l0.921416,-0.584367l0.557997,0.851231l-0.921416,0.584873zm1.843347,-1.168734l-0.557997,-0.851738l0.921416,-0.584367l0.557997,0.851738l-0.921416,0.584367zm1.842832,-1.168734l-0.557997,-0.851231l0.921931,-0.584873l0.557997,0.851738l-0.921931,0.584367zm0.396363,-0.252686l-0.557997,-0.851738l0.921416,-0.584367l0.557997,0.851231l-0.921416,0.584873zm1.446984,-0.916048l-0.557997,-0.851738l0.921931,-0.584367l0.557482,0.851738l-0.921416,0.584367z"/><polygon id="svg_1" fill="#b2b2b2" stroke="null" points="194.236 80.43 151.637 52.667 139.842 60.021 139.39 59.319 151.647 51.676 194.703 79.737 194.236 80.43"/><polygon id="svg_3" fill="#b2b2b2" stroke="null" points="151.807 113.885 151.345 113.188 172.529 99.584 191.302 111.664 227.357 87.863 227.828 88.553 191.308 112.662 172.528 100.578 151.807 113.885"/><polygon id="svg_6" fill="#939393" stroke="null" points="123.264 56.403 123.264 69.86 135.104 62.235 135.023 48.803 123.264 56.403"/><polygon id="svg_7" fill="#b2b2b2" stroke="null" points="123.264 56.418 123.264 69.804 111.94 62.455 111.86 48.937 123.264 56.418"/><polygon id="svg_8" fill="#d2d2d2" stroke="null" points="123.266 56.442 134.816 48.89 123.582 41.6 111.952 49.021 123.266 56.442"/><polygon id="svg_42" fill="#724aad" stroke="null" points="134.074 63.676 134.074 77.133 145.914 69.508 145.833 56.076 134.074 63.676"/><polygon id="svg_43" fill="#939393" stroke="null" points="134.074 63.691 134.074 77.077 122.749 69.728 122.67 56.211 134.074 63.691"/><polygon id="svg_44" fill="#9080cf" stroke="null" points="134.254 63.715 145.805 56.164 134.57 48.873 122.94 56.294 134.254 63.715"/><path id="svg_45" fill="#724aad" stroke="null" d="m134.166263,59.175532l4.478391,-2.928924a0.458649,0.451188 0 0 0 0,-0.75198l-4.337347,-2.814988a0.454531,0.447137 0 0 0 -0.498285,0l-4.511335,2.878286a0.458649,0.451188 0 0 0 -0.004633,0.753499l4.368233,2.86512a0.45556,0.44815 0 0 0 0.504977,-0.001013z"/><path id="svg_46" fill="#b4a0ff" stroke="null" d="m132.34608,57.3961a1.00944,0.993019 0 0 1 -0.845747,-0.667414l0,-3.840415a1.00944,0.993019 0 0 1 0.845747,-0.667414a0.71191,0.700329 0 0 1 0.698526,0.667414l0,3.840415a0.71191,0.700329 0 0 1 -0.698526,0.667414z"/><path id="svg_47" fill="#b4a0ff" stroke="null" d="m135.566918,55.275364c-0.373714,0 -0.676391,-0.298766 -0.978039,-0.66792l0,-3.839909c0.299074,-0.368647 0.601752,-0.66792 0.978039,-0.66792a0.543069,0.534235 0 0 1 0.566233,0.66792l0,3.839909a0.543069,0.534235 0 0 1 -0.566233,0.66792z"/><polygon id="svg_51" fill="#f57800" stroke="null" points="122.749 71.088 122.749 84.546 134.589 76.92 134.509 63.489 122.749 71.088"/><polygon id="svg_52" fill="#ff8c00" stroke="null" points="122.749 71.103 122.749 84.49 111.425 77.141 111.345 63.623 122.749 71.103"/><polygon id="svg_53" fill="#ffb900" stroke="null" points="122.738 71.127 134.289 63.576 123.055 56.286 111.425 63.706 122.738 71.127"/><path id="svg_72" fill="#d2d2d2" stroke="null" d="m171.966971,62.560202l-0.457105,-0.299273l0.569837,-0.843635l0.457105,0.299273l-0.569837,0.843635zm-0.800448,-1.739935l-0.912665,-0.597533l0.569837,-0.843635l0.91318,0.597027l-0.570351,0.844142zm-2.968092,0.491192l-0.91318,-0.598039l0.570866,-0.842623l0.912665,0.598039l-0.570351,0.842623zm1.142247,-1.685752l-0.912665,-0.597533l-1.825845,-1.194053l0.91318,0.597533l1.82533,1.194053zm-1.82533,-1.195066l-0.91318,-0.597027l0.570351,-0.843635l0.912665,0.597027l-0.569837,0.843635zm-1.825845,-1.194559l-0.91318,-0.597533l0.570351,-0.843635l0.912665,0.597533l-0.569837,0.843635zm-1.82636,-1.194559l-0.912665,-0.597533l0.570866,-0.843635l0.912665,0.597533l-0.570866,0.843635zm-4.791878,-0.705899l-0.912665,-0.597027l0.569837,-0.843635l0.91318,0.597027l-0.570351,0.843635zm2.966548,-0.48866l-0.91318,-0.597533l0.570351,-0.843635l0.912665,0.597533l-0.569837,0.843635zm-1.825845,-1.194559l-0.91318,-0.597533l0.570351,-0.843635l0.912665,0.597533l-0.569837,0.843635zm-7.748131,-0.338264l-0.540495,-0.860853l0.933255,-0.565631l0.539981,0.860853l-0.932741,0.565631zm5.919712,-0.856801l-0.91318,-0.597533l0.570351,-0.843635l0.912665,0.597533l-0.569837,0.843635zm-4.05629,-0.275979l-0.539981,-0.860853l0.932741,-0.566644l0.540495,0.860853l-0.933255,0.566644zm2.22993,-0.919087l-0.344373,-0.225341l-0.019561,0.011647l-0.025738,-0.041523l-0.229582,-0.151915l0.070522,-0.101277l-0.355183,-0.56715l0.580647,-0.351937l0.894134,0.58538l-0.570866,0.842116z"/></g></g></svg>