<svg xmlns="http://www.w3.org/2000/svg" viewBox="0 0 400 140"><defs><style>.cls-1,.cls-7{fill:#231f20}.cls-2{fill:#1a1a1a}.cls-3{fill:gray}.cls-4{fill:#414042}.cls-5{fill:#6d6e71}.cls-6{fill:#1772b8}.cls-7{opacity:.34}.cls-8{fill:#f1f2f2}.cls-9{fill:#ffb900}.cls-10{fill:#008272}.cls-11{fill:#5d5f5e}.cls-12{fill:#c7c7c7}.cls-13{fill:#909090}.cls-14{font-size:12px;font-family:SegoeUI,Segoe UI}</style></defs><title>net-docs-web-2</title><g id="ICONS"><rect width="143" height="107" x="175" y="16" class="cls-1" rx="4" ry="4"/><path d="M330.76,129H163.37c-5.6,0-6.52-6-6.52-6H336.92S335.11,129,330.76,129Z" class="cls-2"/><polygon points="156.92 123 175.3 117 317.92 117 337 123 156.92 123" class="cls-3"/><rect width="133" height="88" x="179.92" y="21" class="cls-4"/><rect width="2" height="2" x="192.92" y="25" class="cls-5"/><rect width="3" height="2" x="195.92" y="25" class="cls-6"/><rect width="20" height="2" x="200.92" y="25" class="cls-5"/><rect width="2" height="2" x="192.92" y="29" class="cls-5"/><rect width="3" height="2" x="195.92" y="29" class="cls-6"/><rect width="30" height="2" x="200.92" y="29" class="cls-5"/><rect width="2" height="2" x="192.92" y="33" class="cls-5"/><rect width="3" height="2" x="195.92" y="33" class="cls-6"/><polygon points="312.92 21 312.92 81 252.92 21 312.92 21" class="cls-7"/><rect width="10" height="2" x="265.92" y="49" class="cls-6"/><rect width="18" height="2" x="200.92" y="33" class="cls-5"/><rect width="2" height="2" x="192.92" y="37" class="cls-5"/><rect width="3" height="2" x="195.92" y="37" class="cls-6"/><rect width="20" height="2" x="200.92" y="37" class="cls-5"/><rect width="2" height="2" x="192.92" y="41" class="cls-5"/><rect width="36" height="2" x="196.92" y="41" class="cls-8"/><rect width="36" height="2" x="196.92" y="45" class="cls-8"/><rect width="30" height="2" x="234.92" y="41" class="cls-8"/><rect width="24" height="2" x="196.92" y="49" class="cls-8"/><rect width="41" height="2" x="222.92" y="49" class="cls-9"/><rect width="41" height="2" x="233.92" y="53" class="cls-9"/><rect width="29" height="2" x="276.92" y="53" class="cls-9"/><rect width="34.9" height="2" x="196.92" y="53" class="cls-8"/><rect width="9" height="2" x="196.92" y="59" class="cls-5"/><rect width="20" height="2" x="196.92" y="63" class="cls-5"/><rect width="36" height="2" x="196.92" y="67" class="cls-10"/><rect width="36" height="2" x="196.92" y="71" class="cls-10"/><rect width="30" height="2" x="234.92" y="67" class="cls-10"/><rect width="24" height="2" x="196.92" y="75" class="cls-5"/><rect width="41" height="2" x="222.92" y="75" class="cls-5"/><rect width="41" height="2" x="233.92" y="79" class="cls-5"/><rect width="34.9" height="2" x="197.02" y="79" class="cls-5"/><rect width="20" height="2" x="196.92" y="83" class="cls-5"/><rect width="2" height="2" x="192.92" y="87" class="cls-5"/><rect width="36" height="2" x="196.92" y="87" class="cls-10"/><rect width="36" height="2" x="196.92" y="91" class="cls-10"/><rect width="30" height="2" x="234.92" y="87" class="cls-10"/><rect width="2" height="2" x="192.92" y="91" class="cls-5"/><rect width="2" height="2" x="192.92" y="95" class="cls-5"/><rect width="24" height="2" x="196.92" y="95" class="cls-5"/><rect width="41" height="2" x="222.92" y="95" class="cls-5"/><rect width="41" height="2" x="232.92" y="99" class="cls-5"/><rect width="2" height="2" x="192.92" y="99" class="cls-5"/><rect width="34.9" height="2" x="195.92" y="99" class="cls-5"/><path d="M163.39,15.58a46.35,46.35,0,0,0-56.57,33c-6.5,24.69,6.26,46.32,30.94,52.83s51-7.14,57.55-31.83S188.07,22.08,163.39,15.58Z" class="cls-4"/><rect width="5" height="4" x="111.92" y="27" class="cls-6"/><rect width="35" height="4" x="118.92" y="27" class="cls-5"/><rect width="35" height="4" x="118.92" y="20" class="cls-5"/><rect width="5" height="4" x="111.92" y="34" class="cls-6"/><rect width="35" height="4" x="118.92" y="34" class="cls-5"/><rect width="26" height="4" x="155.92" y="40" class="cls-8"/><rect width="4" height="4" x="105.92" y="40" class="cls-5"/><rect width="5" height="4" x="111.92" y="40" class="cls-6"/><rect width="5" height="4" x="183.92" y="40" class="cls-6"/><rect width="35" height="4" x="118.92" y="40" class="cls-8"/><rect width="4" height="4" x="105.92" y="47" class="cls-5"/><rect width="5" height="4" x="111.92" y="47" class="cls-6"/><rect width="27" height="4" x="118.92" y="47" class="cls-8"/><rect width="26" height="4" x="147.92" y="47" class="cls-9"/><rect width="14" height="4" x="175.92" y="47" class="cls-9"/><rect width="4" height="4" x="105.92" y="54" class="cls-5"/><rect width="5" height="4" x="111.92" y="54" class="cls-6"/><rect width="35" height="4" x="118.92" y="54" class="cls-10"/><rect width="4" height="4" x="105.92" y="61" class="cls-5"/><rect width="5" height="4" x="111.92" y="61" class="cls-6"/><rect width="5" height="4" x="128.92" y="67" class="cls-10"/><rect width="35" height="4" x="118.92" y="61" class="cls-9"/><rect width="26" height="4" x="155.92" y="61" class="cls-5"/><rect width="12" height="4" x="183.92" y="61" class="cls-5"/><rect width="35" height="4" x="135.92" y="67" class="cls-10"/><rect width="5" height="4" x="128.92" y="74" class="cls-10"/><rect width="24" height="4" x="135.92" y="74" class="cls-10"/><rect width="35" height="4" x="106.92" y="81" class="cls-5"/><rect width="18" height="4" x="143.92" y="81" class="cls-5"/><rect width="25" height="4" x="163.92" y="81" class="cls-5"/><rect width="26" height="4" x="114.92" y="88" class="cls-5"/><rect width="26" height="4" x="142.92" y="88" class="cls-5"/><rect width="13" height="4" x="170.92" y="88" class="cls-5"/><path d="M163.94,16.12a46.35,46.35,0,0,0-56.57,33c-6.5,24.69,6.26,46.32,30.94,52.83s51-7.14,57.55-31.83S188.63,22.63,163.94,16.12Zm-24.24,92c-26.06-6.86-43.93-34.83-37.07-60.88s34.39-43.84,60.45-37,43.19,37,36.33,63.05A48.93,48.93,0,0,1,139.7,108.15Z" class="cls-1"/><rect width="18.33" height="101.87" x="56.51" y="54.27" class="cls-1" rx="6.22" ry="6.22" transform="translate(123.48 -4.51) rotate(59.76)"/><path d="M107.84,76.53a6.46,6.46,0,0,0-8.37-1.64L22.63,119.68a6.46,6.46,0,0,0-2.69,8.1Z" class="cls-11"/><rect width="20.58" height="18.33" x="84.94" y="78.81" class="cls-12" transform="matrix(0.86, -0.5, 0.5, 0.86, -31.35, 59.93)"/><path d="M108.73,90.7,101.91,79,84.13,89.36,91,101.07,108.7,90.72Z" class="cls-13"/><path d="M162,11.3a46.3,46.3,0,1,0,33,56.57A46.35,46.35,0,0,0,162,11.3Zm-24.24,92a48.87,48.87,0,1,1,59.71-34.81A48.93,48.93,0,0,1,137.77,103.33Z" class="cls-12"/><rect width="4" height="4" x="244" y="111" class="cls-3"/></g><g id="Titles"><text class="cls-14" transform="translate(0.33 -12.63)">Using ASP.NET Core</text></g></svg>