<svg xmlns="http://www.w3.org/2000/svg" viewBox="0 0 400 140"><defs><style>.cls-1,.cls-16{isolation:isolate}.cls-11,.cls-18,.cls-2{fill:none}.cls-2{stroke:#acacac;stroke-dasharray:2 3}.cls-18,.cls-2{stroke-miterlimit:10}.cls-3{fill:#ccc}.cls-4{fill:#e5eef3}.cls-5{fill:#a0a1a2}.cls-6{fill:#7a7a7a}.cls-16,.cls-7{fill:#fff}.cls-8{fill:#fcd116}.cls-9{fill:#2b8fde}.cls-10{fill:#0078d7}.cls-12,.cls-15{fill:#543b76}.cls-13{fill:#7750a3}.cls-14{fill:#ae96c8}.cls-15{mix-blend-mode:multiply}.cls-16{opacity:.2}.cls-17{fill:#d4e8f8}.cls-18{stroke:#e5eef3;stroke-width:2px}</style></defs><title>net-docs-cloud-4</title><g class="cls-1"><g id="ICONS"><ellipse cx="201.5" cy="74.43" class="cls-2" rx="154.5" ry="35.57"/><circle cx="65" cy="68" r="52" class="cls-3"/><path d="M65,118a50,50,0,1,1,50-50A50.06,50.06,0,0,1,65,118Z" class="cls-4"/><circle cx="334" cy="68" r="52" class="cls-3"/><path d="M334,118a50,50,0,1,1,50-50A50.06,50.06,0,0,1,334,118Z" class="cls-4"/><g id="Azure_Storage" data-name="Azure Storage"><path d="M264,121.13a4.7,4.7,0,0,1-4.86,4.87H140.8a4.71,4.71,0,0,1-4.8-4.87L136.06,36H263.94Z" class="cls-5"/><path d="M259.14,17H140.86A4.77,4.77,0,0,0,136,22V37H264V22a4.77,4.77,0,0,0-4.86-5" class="cls-6"/><rect width="32" height="19" x="223" y="45" class="cls-7"/><rect width="32" height="19" x="184" y="45" class="cls-7"/><rect width="32" height="19" x="145" y="45" class="cls-7"/><rect width="32" height="19" x="223" y="71" class="cls-8"/><rect width="32" height="19" x="184" y="71" class="cls-8"/><rect width="32" height="19" x="145" y="71" class="cls-7"/><rect width="32" height="19" x="223" y="97" class="cls-8"/><rect width="32" height="19" x="184" y="97" class="cls-8"/><rect width="32" height="19" x="145" y="97" class="cls-8"/></g><path d="M362,54.44V98.38a4.63,4.63,0,0,1-4.61,4.62H313.61A4.63,4.63,0,0,1,309,98.38V33.62A4.63,4.63,0,0,1,313.61,29h23l.35.35L361.56,54Z" class="cls-9"/><path d="M354.4,103H313.61A4.63,4.63,0,0,1,309,98.38V57.59Z" class="cls-10"/><polygon points="362 54.44 362 54.59 337 54.59 337 29.35 362 54.44" class="cls-10"/><rect width="74" height="74" x="298" y="29" class="cls-11"/><rect width="74" height="74" x="298" y="29" class="cls-11"/><path d="M93,41.52V95.66c0,2.82-3.19,5.36-8.35,7.2a62.28,62.28,0,0,1-20.15,3V106H64c-15.54-.17-28-4.81-28-10.33V41.52H93Z" class="cls-12"/><path d="M93,41.52V95.66c0,2.82-3.19,5.36-8.35,7.2a62.28,62.28,0,0,1-20.15,3V106H64V41.52Z" class="cls-13"/><path d="M93,41.13c0,5.59-12.76,10.13-28.5,10.13S36,46.72,36,41.13,49.14,31,64.88,31,93,35.53,93,41.13" class="cls-14"/><path d="M88,41.31C88,45,77.7,48,65,48s-23-3-23-6.69,10.3-6.69,23-6.69,23,3,23,6.69" class="cls-15"/><path d="M84,45c3.12-1.13,5-2.78,5-4.32C89,37,78.15,34,65,34s-24,3-24,6.68c0,1.54,1.88,3.19,5,4.32a59,59,0,0,1,19-3C72.66,42,84,45,84,45Z" class="cls-13"/><path d="M136.06,37,136,121.13a4.71,4.71,0,0,0,4.8,4.87h5.39l82.72-89Z" class="cls-16"/><rect width="2" height="26" x="335" y="29" class="cls-17"/><polygon points="362 54.44 362 56 335 56 335 54 361.56 54 362 54.44" class="cls-17"/><line x1="317" x2="335" y1="44" y2="44" class="cls-18"/><line x1="317" x2="335" y1="53" y2="53" class="cls-18"/><line x1="317" x2="354" y1="62" y2="62" class="cls-18"/><line x1="317" x2="354" y1="71" y2="71" class="cls-18"/><line x1="317" x2="354" y1="80" y2="80" class="cls-18"/><line x1="317" x2="354" y1="89" y2="89" class="cls-18"/></g></g></svg>