<svg xmlns="http://www.w3.org/2000/svg" id="ICONS" viewBox="0 0 400 140"><defs><style>.cls-1{fill:#333}.cls-2{fill:#1a1a1a}.cls-4{fill:#80bceb}.cls-5{fill:#aad2f2}.cls-6{fill:gray}.cls-7{fill:#2e2e2e}.cls-8{fill:#f2f2f2}.cls-9{fill:#999;stroke:#767676;stroke-miterlimit:10;stroke-width:.2px}.cls-10{fill:#acacac}.cls-11{fill:#fff}</style></defs><title>net-docs-desktop-1</title><polygon points="213 101 194 101 195 88 212 88 213 101" class="cls-1"/><polygon points="213 101 203 101 203 88 212 88 213 101" class="cls-2"/><path d="M245,90V58a6,6,0,0,1,6-6h16V22a4,4,0,0,0-4-4H142a4,4,0,0,0-4,4V50.87l21.8-1h.14A4.06,4.06,0,0,1,164,53.9V90Z" class="cls-1"/><path d="M245,86V58a6,6,0,0,1,6-6h12V22H142V50.68l17.8-.83h.14A4.06,4.06,0,0,1,164,53.9V86Z" class="cls-4"/><polygon points="263 52 263 22 230 22 260 52 263 52" class="cls-5"/><path d="M245,116H164v2h81Z" class="cls-2"/><rect width="81" height="8" x="164" y="108" class="cls-6"/><polygon points="245 110 167.31 110 164.37 114 245 114 245 110" class="cls-7"/><rect width="93" height="69" x="247" y="54" class="cls-1" rx="4" ry="4"/><path d="M348,128H239.3c-3.64,0-4.23-4-4.23-4H352S350.82,128,348,128Z" class="cls-2"/><polygon points="235.07 124 247 120 340 120 352 124 235.07 124" class="cls-6"/><rect width="86" height="55" x="251" y="58" class="cls-4"/><path d="M159.85,51.84,84,55.4a2.05,2.05,0,0,0-2,2.05V66h8a6,6,0,0,1,6,6v46.05l63.85,3A2.05,2.05,0,0,0,162,119V53.9A2.05,2.05,0,0,0,159.85,51.84Z" class="cls-1"/><polygon points="199 52 199 36.94 183 39 183 52 199 52" class="cls-8"/><polygon points="201 51.99 222 52 222 34 201 36.7 201 51.99" class="cls-8"/><polygon points="201 54 201 69.49 222 72.32 222 54 201 54" class="cls-8"/><polygon points="199 54 183 54 183 67 199 69.23 199 54" class="cls-8"/><polygon points="337 58 337 85 310 58 337 58" class="cls-5"/><polygon points="158 57.61 158 86 130.68 58.68 158 57.61" class="cls-5"/><path d="M130.68,58.68,121.9,59,86,60.42V66h4a6,6,0,0,1,6,6v40.42L158,115V57.61Z" class="cls-4"/><rect width="30" height="56" x="64" y="68" class="cls-1" rx="4" ry="4"/><rect width="26" height="41" x="66" y="74" class="cls-4"/><path d="M82.27,72H74.73c-.4,0-.73-.45-.73-1s.33-1,.73-1h7.54c.4,0,.73.45.73,1S82.67,72,82.27,72Z" class="cls-9"/><circle cx="70" cy="119" r="1" class="cls-10"/><circle cx="88" cy="119" r="1" class="cls-10"/><polygon points="80 120 78 119.72 78 118.41 80 118 80 120" class="cls-10"/><polygon points="295 118 292 117.58 292 115.61 295 115 295 118" class="cls-10"/><polygon points="92 74 92 92 74 74 92 74" class="cls-5"/><path d="M229.93,106H175.07a2,2,0,0,1-2.07-2s3.5-3,3.67-3h50.72c2.11,0,4.61,3,4.61,3A2,2,0,0,1,229.93,106Z" class="cls-1"/><polygon points="77 96 77 89.28 70 90.19 70 96 77 96" class="cls-11"/><polygon points="78 96 87 96 87 88.04 78 89.24 78 96" class="cls-11"/><polygon points="78 97 78 103.74 87 105 87 97 78 97" class="cls-11"/><polygon points="77 97 70 97 70.05 102.85 77 103.81 77 97" class="cls-11"/><polygon points="288 86 288 71.08 272 74 272 86 288 86" class="cls-11"/><polygon points="290 86 310 86 310 68.32 290 71 290 86" class="cls-11"/><polygon points="290 88 290 103.36 310 106.16 310 88 290 88" class="cls-11"/><polygon points="288 88 272.01 88 272 100.82 288 102.94 288 88" class="cls-11"/><polygon points="116 86 116 70.94 100 73 100 86 116 86" class="cls-8"/><polygon points="118 85.99 139 86 139 68 118 70.7 118 85.99" class="cls-8"/><polygon points="118 88 118 103.49 139 106.32 139 88 118 88" class="cls-8"/><polygon points="116 88 100 88 100 101 116 103.23 116 88" class="cls-8"/></svg>