<svg xmlns="http://www.w3.org/2000/svg" id="ICONS" viewBox="0 0 400 140"><defs><style>.cls-1{fill:#221f1f}.cls-2{fill:#333}.cls-3{fill:#acacac}.cls-4{fill:#5e5e5e}.cls-5{fill:#5e615f}.cls-6{fill:#80bceb}.cls-7{fill:#fff}.cls-8{fill:#aad2f2}.cls-9{fill:#008272}.cls-10{fill:#2b978a}.cls-11,.cls-14{fill:none}.cls-12{fill:#d4e8f8}.cls-13{fill:#e4edf1}.cls-14{stroke:#e4edf1;stroke-miterlimit:10;stroke-width:2px}</style></defs><title>net-docs-desktop-3</title><path d="M284,133H116c-5.61,0-7-6-7-6H291S288.35,133,284,133Z" class="cls-1"/><path d="M254.63,80C251,80,248,77.58,248,74V19H130.71A3.63,3.63,0,0,0,127,22.92V122H272V80Z" class="cls-2"/><polygon points="109 127 127 121 272 121 291 127 109 127" class="cls-3"/><polygon points="130.24 125 135.21 123 263.47 123 268.83 125 130.24 125" class="cls-4"/><polygon points="201 117.5 196 116.8 196 113.52 201 112.5 201 117.5" class="cls-5"/><path d="M254.63,80C251,80,248,76.58,248,73V24H211l-79,0V108l135-.09V80Z" class="cls-6"/><polygon points="194 64 194 43.88 173 46.7 173 64 194 64" class="cls-7"/><polygon points="196 64 224 64 224 40 196 43.7 196 64" class="cls-7"/><polygon points="196 66 196 87.25 224 91.13 224 66 196 66" class="cls-7"/><polygon points="194 66 173 66 173 84 194 87 194 66" class="cls-7"/><polygon points="248 23.99 237.86 23.99 214 24 248 58 248 23.99" class="cls-8"/><path d="M301.88,30.75V73.5a4.51,4.51,0,0,1-4.5,4.5H254.62a4.51,4.51,0,0,1-4.5-4.5v-63a4.51,4.51,0,0,1,4.5-4.5h22.5l.88.88L300.13,29Z" class="cls-9"/><path d="M296.25,78H254.63a4.51,4.51,0,0,1-4.5-4.5V31.88Z" class="cls-10"/><polygon points="301.88 30.75 301.88 30.95 277.13 30.95 277.13 6 301.88 30.75" class="cls-9"/><rect width="72" height="72" x="240" y="6" class="cls-11"/><polygon points="301.88 30.75 301.88 31 276 31 276 6 277.12 6 278 6.88 278 29 300.13 29 301.88 30.75" class="cls-12"/><circle cx="261" cy="37" r="3" class="cls-13"/><circle cx="261" cy="47" r="3" class="cls-13"/><circle cx="261" cy="57" r="3" class="cls-13"/><circle cx="261" cy="67" r="3" class="cls-13"/><line x1="268" x2="294" y1="37" y2="37" class="cls-14"/><line x1="268" x2="294" y1="47" y2="47" class="cls-14"/><line x1="268" x2="294" y1="57" y2="57" class="cls-14"/><line x1="268" x2="294" y1="67" y2="67" class="cls-14"/></svg>