<svg xmlns="http://www.w3.org/2000/svg" width="400" height="140"><title>swimlane-serverless-computing</title><g><title>background</title><rect id="canvas_background" width="402" height="142" x="-1" y="-1" fill="none"/></g><g><title>Layer 1</title><g id="svg_96" stroke="null"><path id="svg_1" fill="#c8c8c8" stroke="null" d="m104.112937,125.836207l38.715395,0a2.258035,1.913103 0 0 1 2.285844,1.683032a2.181149,1.847963 0 0 1 -2.171879,2.012893l-38.824452,0a2.257489,1.912641 0 0 1 -2.285844,-1.683032a2.181149,1.847963 0 0 1 2.171879,-2.012893"/><path id="svg_2" fill="#b2b2b2" stroke="null" d="m77.939149,134.152039l-14.395583,0a3.4653,2.935951 0 0 1 -3.663785,-3.016337c0,-1.449265 1.155464,-2.989542 3.296807,-2.989542l27.849456,0l0,1.385972l-27.848365,0a1.786906,1.513943 0 0 0 -1.786361,1.604032a1.894873,1.605418 0 0 0 0.508753,1.127257a2.187692,1.853507 0 0 0 1.643496,0.502646l14.395583,0l0,1.385972z"/><rect id="svg_3" width="4.498" height=".859" x="79.764" y="132.131" fill="#d2d2d2" stroke="null"/><rect id="svg_4" width="4.498" height=".859" x="79.764" y="134.278" fill="#d2d2d2" stroke="null"/><path id="svg_5" fill="#c2c2c2" stroke="null" d="m80.665586,131.380095l-5.609915,0a0.934077,0.79139 0 0 0 -0.933532,0.790928l0,3.038051a0.934077,0.79139 0 0 0 0.933532,0.790928l5.609915,0l0,-4.619907z"/><rect id="svg_6" width="127.062" height="46.168" x="59.406" y="572.616" fill="#e6e6e6" stroke="null" transform="matrix(0.0007328463481311021,-0.4619902372356248,0.5452867590127548,0.0006208987338026113,-207.71748171491691,156.6224525435425)"/><rect id="svg_7" width="4.059" height="47.005" x="87.421" y="636.674" fill="#b2b2b2" stroke="null" transform="matrix(0.0006852146288668261,-0.4619902897096087,0.5452868209477619,0.0005805431063843252,-243.11971344034936,156.1521729785179)"/><polygon id="svg_8" fill="#b2b2b2" stroke="null" points="129.741 79.202 129.745 77.327 104.658 77.299 104.669 70.69 88.845 76.869 88.754 129.532 104.658 129.532 104.658 122.426 104.658 123.988 129.741 124.015 129.744 122.14 104.658 122.113 104.69 101.351 129.741 101.377 129.744 99.503 104.658 99.621 104.658 93.959 129.741 93.986 129.745 92.111 104.658 92.084 104.667 86.567 129.741 86.594 129.745 84.719 104.658 84.719 104.658 78.908 104.658 79.175 129.741 79.202"/><rect id="svg_9" width="4.059" height="47.005" x="103.426" y="604.699" fill="#b2b2b2" stroke="null" transform="matrix(0.0006757028062417744,-0.46199029976614364,0.5452868328174831,0.0005724842839052193,-225.69414117591975,156.17849222108754)"/><path id="svg_10" fill="#c8c8c8" stroke="null" d="m126.078744,73.998545a1.051859,0.89118 0 1 1 -1.049678,-0.891642a1.051314,0.890718 0 0 1 1.049678,0.891642"/><path id="svg_11" fill="#c8c8c8" stroke="null" d="m122.100873,73.993926a1.051859,0.89118 0 1 1 -1.050223,-0.891642a1.050769,0.890256 0 0 1 1.050223,0.891642"/><path id="svg_12" fill="#c8c8c8" stroke="null" d="m126.066747,81.875486a1.051859,0.89118 0 1 1 -1.050223,-0.891642a1.051859,0.89118 0 0 1 1.050223,0.891642"/><path id="svg_13" fill="#c8c8c8" stroke="null" d="m122.088332,81.871328a1.051314,0.890718 0 1 1 -1.049678,-0.892104a1.051314,0.890718 0 0 1 1.049678,0.892104"/><path id="svg_14" fill="#c8c8c8" stroke="null" d="m126.054751,89.261793a1.051314,0.890718 0 1 1 -1.049678,-0.891642a1.051314,0.890718 0 0 1 1.049678,0.891642"/><path id="svg_15" fill="#c8c8c8" stroke="null" d="m122.077426,89.257635a1.051859,0.89118 0 1 1 -1.050223,-0.892104a1.05295,0.892104 0 0 1 1.050223,0.892104"/><path id="svg_16" fill="#c8c8c8" stroke="null" d="m126.043845,96.648099a1.051859,0.89118 0 1 1 -1.050223,-0.891642a1.051859,0.89118 0 0 1 1.050223,0.891642"/><path id="svg_17" fill="#c8c8c8" stroke="null" d="m122.06543,96.643941a1.051859,0.89118 0 1 1 -1.048587,-0.892104a1.051314,0.890718 0 0 1 1.050223,0.892104"/><path id="svg_18" fill="#c8c8c8" stroke="null" d="m126.033485,104.034406a1.051859,0.89118 0 1 1 -1.050223,-0.891642a1.051314,0.890718 0 0 1 1.050223,0.891642"/><path id="svg_19" fill="#c8c8c8" stroke="null" d="m122.052888,104.030248a1.051859,0.89118 0 1 1 -1.050223,-0.892104a1.050769,0.890256 0 0 1 1.050223,0.892104"/><path id="svg_20" fill="#c8c8c8" stroke="null" d="m126.020398,111.422098a1.051314,0.890718 0 1 1 -1.050223,-0.892104a1.050769,0.890256 0 0 1 1.050223,0.892104"/><path id="svg_21" fill="#c8c8c8" stroke="null" d="m122.042527,111.416555a1.051859,0.89118 0 1 1 -1.050223,-0.892104a1.051314,0.890718 0 0 1 1.050223,0.892104"/><path id="svg_22" fill="#c8c8c8" stroke="null" d="m126.008947,118.807019a1.051859,0.89118 0 1 1 -1.050223,-0.892104a1.051314,0.890718 0 0 1 1.050223,0.892104"/><path id="svg_23" fill="#c8c8c8" stroke="null" d="m122.031076,118.802861a1.051859,0.89118 0 1 1 -1.050223,-0.892104a1.051314,0.890718 0 0 1 1.050223,0.892104"/><path id="svg_24" fill="#c8c8c8" stroke="null" d="m125.996951,126.503321a1.051859,0.89118 0 1 1 -1.050223,-0.892104a1.051859,0.89118 0 0 1 1.050223,0.892104"/><path id="svg_25" fill="#c8c8c8" stroke="null" d="m122.01908,126.499163a1.051859,0.89118 0 1 1 -1.050223,-0.892104a1.051314,0.890718 0 0 1 1.050223,0.892104"/><path id="svg_26" fill="#8fc3ec" stroke="null" d="m334.492984,75.152598a42.304476,35.842159 0 0 0 -35.84882,-35.438379a46.513003,39.407803 0 0 0 -85.863112,-16.319358a32.72705,27.727755 0 0 0 -45.648177,36.045435a31.460348,26.654551 0 0 0 11.157122,51.560929c0.176673,0 0.351165,-0.008778 0.527293,-0.01155l0,0.062831l113.965036,0l0,-0.063293a42.278302,35.819983 0 0 0 41.710658,-35.836615z"/><polygon id="svg_27" fill="none" stroke="#bfe1f7" stroke-miterlimit="10" stroke-width="1.112" points="298.609 39.651 234.027 27.568 191.334 64.376 227.415 103.38 289.663 77.667 298.609 39.651"/><polyline id="svg_28" fill="none" stroke="#bfe1f7" stroke-miterlimit="10" stroke-width="1.112" points="189.587 62.453 291.479 80.483 234.027 27.568 227.415 101.913"/><line id="svg_29" x1="299.538" x2="189.587" y1="39.584" y2="64.741" fill="none" stroke="#bfe1f7" stroke-miterlimit="10" stroke-width="1.112"/><line id="svg_30" x1="227.415" x2="298.609" y1="100.594" y2="39.651" fill="none" stroke="#bfe1f7" stroke-miterlimit="10" stroke-width="1.112"/><path id="svg_31" fill="#666" stroke="null" d="m227.443281,49.145758c0,0.123813 -0.876277,0.123813 -1.643496,0.388996l-1.24271,0.415792l-0.804299,0.266107s-0.769946,0.265183 0.47549,0.316464l17.664035,0c0,-0.051281 1.132562,-0.051281 0.109057,-0.405628l-1.428653,-0.472154a11.244914,9.527171 0 0 0 -2.411806,-0.50819l-10.717621,-0.001386z"/><path id="svg_32" fill="#666" stroke="null" d="m235.527165,49.145758l0,-6.92986l-5.452873,0l0,6.92986l5.452873,0z"/><polygon id="svg_33" fill="#8c8c8c" stroke="null" points="230.074 44.277 235.527 47.998 235.527 49.146 230.074 49.146 230.074 44.277"/><rect id="svg_34" width="19.085" height=".462" x="223.531" y="50.532" stroke="null"/><path id="svg_35" fill="#666" stroke="null" d="m207.553929,11.262525s-2.56285,0 -2.56285,2.16304l0,26.630527s0,2.159806 2.56285,2.159806l50.502869,0s2.55358,0 2.55358,-2.159806l0,-26.630527s0,-2.16304 -2.556307,-2.16304l-50.500143,0z"/><path id="svg_36" stroke="null" d="m208.023421,11.724515s-2.487055,0 -2.487055,2.125157l0,26.244303s0,2.121923 2.487055,2.121923l49.555705,0s2.485965,0 2.485965,-2.121923l0,-26.244303s0,-2.125157 -2.485965,-2.125157l-49.555705,0z"/><path id="svg_37" fill="#479cdf" stroke="null" d="m208.736657,13.110487a1.002238,0.849139 0 0 0 -1.019142,0.874548l0,25.478785a1.031138,0.873624 0 0 0 1.019142,0.904116l48.125962,0a1.01478,0.859765 0 0 0 1.021323,-0.904116l0,-25.478785a1.007691,0.853759 0 0 0 -1.021323,-0.874548l-48.125962,0z"/><rect id="svg_38" width="47.985" height="24.024" x="208.808" y="14.958" fill="#d2d2d2" stroke="null"/><rect id="svg_39" width=".545" height="10.164" x="210.989" y="20.502" fill="#0872c4" stroke="null"/><rect id="svg_40" width="47.985" height="6.006" x="208.808" y="14.496" fill="#106ebe" stroke="null"/><rect id="svg_41" width="22.357" height="18.48" x="208.808" y="20.502" fill="#f3f3f3" stroke="null"/><rect id="svg_42" width="16.904" height="11.088" x="221.895" y="18.192" fill="#fff" stroke="null"/><rect id="svg_43" width="9.27" height="1.848" x="221.895" y="16.344" fill="#479cdf" stroke="null"/><rect id="svg_44" width="16.904" height="3.234" x="221.895" y="21.888" fill="#ffcb40" stroke="null"/><rect id="svg_45" width="10.36" height="1.386" x="212.08" y="22.812" fill="#d2d2d2" stroke="null"/><rect id="svg_46" width="10.36" height="1.386" x="212.08" y="26.046" fill="#d2d2d2" stroke="null"/><rect id="svg_47" width="11.996" height="1.386" x="216.442" y="29.28" fill="#d2d2d2" stroke="null"/><rect id="svg_48" width="11.996" height="1.386" x="216.442" y="32.052" fill="#d2d2d2" stroke="null"/><polygon id="svg_49" fill="#b2b2b2" stroke="null" points="238.799 29.742 221.895 29.742 221.895 18.192 222.44 18.192 222.44 29.28 238.799 29.28 238.799 29.742"/><path id="svg_50" fill="#8c8c8c" stroke="null" d="m181.216555,74.555244a2.624468,2.223561 0 0 0 2.584116,1.847963l41.023051,0a2.624468,2.223561 0 0 0 2.584116,-1.847963l-46.191283,0z"/><path id="svg_51" fill="#666" stroke="null" d="m210.804932,74.555244l-29.364809,0a2.623922,2.223099 0 0 0 2.583571,1.847963l24.197667,0a2.623922,2.223099 0 0 0 2.583571,-1.847963z"/><path id="svg_52" fill="#8c8c8c" stroke="null" d="m192.267891,47.060332l-18.358186,0a1.129835,0.957245 0 0 0 -0.974974,1.26955l8.985789,26.160221l20.582413,0l-9.170096,-26.697978a1.139105,0.965098 0 0 0 -1.064946,-0.731793z"/><path id="svg_53" fill="#3c3c3c" stroke="null" d="m193.996997,47.060332l-18.357641,0a1.12929,0.956783 0 0 0 -0.974974,1.26955l8.985243,26.160221l20.582413,0l-9.170096,-26.697978a1.13856,0.964636 0 0 0 -1.064946,-0.731793z"/><path id="svg_54" fill="#fff" stroke="null" d="m193.189972,48.279526l-16.027628,0c-0.615084,0 -0.743227,0.377908 -0.552921,0.930911l8.406148,24.282229l17.630773,0l-8.515206,-24.568663a1.006055,0.852373 0 0 0 -0.941166,-0.644477z"/><rect id="svg_55" width="32.717" height="20.328" x="283.512" y="29.28" fill="#fff" stroke="null"/><rect id="svg_56" width="32.717" height="20.328" x="283.512" y="29.28" fill="#505050" stroke="null"/><rect id="svg_57" width="32.717" height="2.772" x="283.512" y="28.818" fill="#479cdf" stroke="null"/><path id="svg_58" fill="#4b4a4b" stroke="null" d="m307.505082,89.338945l0,-22.419944a1.347405,1.141579 0 0 0 -1.347405,-1.141579l-39.292309,0a1.347405,1.141579 0 0 0 -1.347405,1.141579l0,22.419944l41.987118,0z"/><rect id="svg_59" width="51.802" height=".924" x="260.61" y="89.339" fill="#4b4a4b" stroke="null"/><path id="svg_60" fill="#2e2e2e" stroke="null" d="m307.088483,91.186908l-40.178946,0c-5.753871,0 -6.299158,-0.768752 -6.299158,-0.923981l51.802289,0c0,0.155229 -0.545287,0.923981 -5.324185,0.923981z"/><rect id="svg_61" width="37.625" height="20.328" x="267.699" y="67.625" fill="#666" stroke="null"/><path id="svg_62" fill="#939393" stroke="null" d="m282.018356,89.338945c0.006543,0.31092 0.403513,0.461991 0.638531,0.461991l6.92842,0c0.470583,0 0.631988,-0.151071 0.638531,-0.461991l-8.205483,0z"/><circle id="svg_63" cx="286.178" cy="66.614" r=".372" fill="#767576" stroke="null"/><rect id="svg_64" width="37.625" height="3.234" x="267.699" y="67.625" fill="#fff" stroke="null"/><rect id="svg_65" width="37.625" height="1.848" x="267.699" y="67.625" fill="#106ebe" stroke="null"/><rect id="svg_66" width="8.179" height="17.094" x="267.699" y="70.859" fill="#d2d2d2" stroke="null"/><rect id="svg_67" width="29.446" height="5.544" x="275.878" y="82.409" fill="#333" stroke="null"/><rect id="svg_68" width="7.089" height=".924" x="278.605" y="73.169" fill="#e26c41" stroke="null"/><rect id="svg_69" width="15.268" height=".924" x="281.877" y="75.479" fill="#939393" stroke="null"/><rect id="svg_70" width="12.542" height=".924" x="282.422" y="77.327" fill="#939393" stroke="null"/><rect id="svg_71" width="12.542" height=".924" x="285.148" y="79.637" fill="#939393" stroke="null"/><rect id="svg_72" width="13.087" height="1.386" x="286.239" y="32.976" fill="#939393" stroke="null"/><rect id="svg_73" width="9.815" height="1.386" x="286.239" y="35.748" fill="#939393" stroke="null"/><rect id="svg_74" width="13.087" height="1.386" x="290.601" y="38.058" fill="#939393" stroke="null"/><rect id="svg_75" width="13.087" height="1.386" x="294.963" y="40.83" fill="#939393" stroke="null"/><rect id="svg_76" width="7.634" height="1.386" x="286.239" y="32.976" fill="#e26c41" stroke="null"/><rect id="svg_77" width="4.908" height="1.386" x="294.963" y="40.83" fill="#ffb900" stroke="null"/><rect id="svg_78" width="9.815" height="1.386" x="294.963" y="43.14" fill="#939393" stroke="null"/><rect id="svg_79" width="17.994" height="1.386" x="290.601" y="45.912" fill="#939393" stroke="null"/><path id="svg_80" fill="#f3f3f3" stroke="null" d="m215.93663,113.82445a0.584548,0.495254 0 0 1 -0.585093,-0.495716l0,-23.527798l-1.585695,0c-0.323355,-0.161235 -0.585093,0.060521 -0.595454,0.334481l0,26.27618c0.01036,0.27396 0.595454,0.649097 0.595454,0.649097l24.449044,0a0.584003,0.494792 0 0 0 0.584003,-0.49664l0.004362,-2.739605l-22.866621,0z"/><path id="svg_81" fill="#d2d2d2" stroke="null" d="m180.557848,48.279526l-3.395504,0c-0.615084,0 -0.743227,0.377908 -0.552921,0.930911l8.406148,24.282229l4.271235,0l-8.728958,-25.21314z"/><path id="svg_82" fill="#939393" stroke="null" d="m178.198935,53.802162l17.620958,0l-1.69039,-4.876311a1.006055,0.852373 0 0 0 -0.940075,-0.646787l-16.027083,0c-0.615084,0 -0.743227,0.377908 -0.552921,0.930911l1.589512,4.592187z"/><path id="svg_83" fill="#ffb900" stroke="null" d="m176.838989,49.874779l17.619867,0l-0.327172,-0.948929a1.006055,0.852373 0 0 0 -0.940075,-0.646787l-16.029264,0c-0.615084,0 -0.743227,0.377908 -0.552921,0.930911l0.229566,0.664805z"/><polygon id="svg_84" fill="#e26c41" stroke="null" points="190.001 55.943 185.03 55.943 185.386 56.971 190.356 56.971 190.001 55.943"/><polygon id="svg_85" fill="#d2d2d2" stroke="null" points="196.171 57.999 185.742 57.999 186.098 59.027 196.527 59.027 196.171 57.999"/><polygon id="svg_86" fill="#d2d2d2" stroke="null" points="193.983 60.055 187.901 60.055 188.257 61.083 194.338 61.083 193.983 60.055"/><polygon id="svg_87" fill="#d2d2d2" stroke="null" points="196.888 62.11 190.339 62.11 190.695 63.138 197.244 63.138 196.888 62.11"/><polygon id="svg_88" fill="#d2d2d2" stroke="null" points="196.234 64.166 191.051 64.166 191.407 65.194 196.59 65.194 196.234 64.166"/><polygon id="svg_89" fill="#d2d2d2" stroke="null" points="198.24 66.221 188.588 66.221 188.944 67.249 198.596 67.249 198.24 66.221"/><path id="svg_90" fill="#d2d2d2" stroke="null" d="m217.572492,111.976487a0.584548,0.495254 0 0 1 -0.585093,-0.495716l0,-23.527798l-1.350677,0c-0.323355,-0.138597 -0.585093,0.083158 -0.285185,0.357119l0,26.273871c-0.299908,0.27396 0.285185,0.626459 0.285185,0.626459l24.214026,0a0.584003,0.494792 0 0 0 0.584003,-0.49433l0.004362,-2.739605l-22.866621,0z"/><path id="svg_91" fill="#fff" stroke="null" d="m233.641562,86.105011l-16.06907,0a0.584548,0.495254 0 0 0 -0.585093,0.495716l0,26.266017a0.584548,0.495254 0 0 0 0.585093,0.495716l24.458314,0a0.585093,0.495716 0 0 0 0.585093,-0.49433l0.068161,-19.145355l-9.042498,-7.617764z"/><path id="svg_92" fill="#ffb900" stroke="null" d="m242.070612,93.470066l-8.709328,-7.365055l-0.015268,0l0,6.896134a0.584548,0.495254 0 0 0 0.585093,0.495716l8.139503,0l0,-0.026795z"/><rect id="svg_93" width="17.449" height="1.386" x="220.804" y="97.193" fill="#8fc3ec" stroke="null"/><rect id="svg_94" width="17.449" height="1.386" x="220.804" y="100.427" fill="#8fc3ec" stroke="null"/><rect id="svg_95" width="17.449" height="1.386" x="220.804" y="104.123" fill="#8fc3ec" stroke="null"/></g></g></svg>